<?xml version="1.0" encoding="UTF-8"?>
<svg id="Camada_1" data-name="Camada 1" xmlns="http://www.w3.org/2000/svg" viewBox="0 0 208.72 208.72">
  <defs>
    <style>
      .cls-1 {
        fill: #8e623b;
      }
    </style>
  </defs>
  <path class="cls-1" d="M150.94,0L57.48.13C25.74.18-.05,26.04,0,57.78l.13,93.46c.05,31.74,25.9,57.53,57.64,57.48l93.46-.13c31.74-.05,57.53-25.91,57.48-57.64l-.13-93.46C208.54,25.74,182.69-.05,150.94,0h0ZM190.21,150.97c.03,21.54-17.46,39.08-39,39.11l-93.46.13c-21.54.03-39.08-17.46-39.11-39l-.13-93.46c-.03-21.54,17.46-39.08,39-39.11l93.46-.13c21.54-.03,39.08,17.46,39.11,39l.13,93.46ZM190.21,150.97"/>
  <path class="cls-1" d="M142.14,66.38l-14.71.05c-11.52,0-13.82,5.46-13.82,13.55v17.78h27.54l-3.56,27.79h-23.98v71.39h-28.64v-71.39h-24.03v-27.79h24.03v-20.52c0-23.84,14.48-36.84,35.72-36.84,10.15,0,18.93.77,21.45,1.16v24.83Z"/>
</svg>